<svg width="24" height="24" viewBox="0 0 24 24" fill="none" xmlns="http://www.w3.org/2000/svg">
<g clip-path="url(#clip0_464_56)">
<rect x="14" y="3" width="29" height="42" fill="white"/>
<path d="M0 5.14286C0 3.77889 0.541835 2.47078 1.50631 1.50631C2.47078 0.541835 3.77889 0 5.14286 0H18.8571C20.2211 0 21.5292 0.541835 22.4937 1.50631C23.4582 2.47078 24 3.77889 24 5.14286V18.8571C24 20.2211 23.4582 21.5292 22.4937 22.4937C21.5292 23.4582 20.2211 24 18.8571 24H5.14286C3.77889 24 2.47078 23.4582 1.50631 22.4937C0.541835 21.5292 0 20.2211 0 18.8571V5.14286ZM12.4286 7.71429C12.0876 7.71429 11.7606 7.84975 11.5194 8.09086C11.2783 8.33198 11.1429 8.65901 11.1429 9V17.5714C11.1429 17.6851 11.0977 17.7941 11.0173 17.8745C10.937 17.9548 10.828 18 10.7143 18H9C8.65901 18 8.33198 18.1355 8.09086 18.3766C7.84975 18.6177 7.71429 18.9447 7.71429 19.2857C7.71429 19.6267 7.84975 19.9537 8.09086 20.1949C8.33198 20.436 8.65901 20.5714 9 20.5714H10.7143C11.5099 20.5714 12.273 20.2554 12.8356 19.6928C13.3982 19.1301 13.7143 18.3671 13.7143 17.5714V9C13.7143 8.65901 13.5788 8.33198 13.3377 8.09086C13.0966 7.84975 12.7696 7.71429 12.4286 7.71429ZM14.5714 10.7143V12.4286C14.5714 14.0846 15.9154 15.4286 17.5714 15.4286H18.4286C18.5422 15.4286 18.6512 15.4737 18.7316 15.5541C18.812 15.6345 18.8571 15.7435 18.8571 15.8571V17.5714C18.8571 17.6851 18.812 17.7941 18.7316 17.8745C18.6512 17.9548 18.5422 18 18.4286 18H15.8571C15.5162 18 15.1891 18.1355 14.948 18.3766C14.7069 18.6177 14.5714 18.9447 14.5714 19.2857C14.5714 19.6267 14.7069 19.9537 14.948 20.1949C15.1891 20.436 15.5162 20.5714 15.8571 20.5714H18.4286C19.2242 20.5714 19.9873 20.2554 20.5499 19.6928C21.1125 19.1301 21.4286 18.3671 21.4286 17.5714V15.8571C21.4286 15.0615 21.1125 14.2984 20.5499 13.7358C19.9873 13.1732 19.2242 12.8571 18.4286 12.8571H17.5714C17.4578 12.8571 17.3488 12.812 17.2684 12.7316C17.188 12.6512 17.1429 12.5422 17.1429 12.4286V10.7143C17.1429 10.6006 17.188 10.4916 17.2684 10.4112C17.3488 10.3309 17.4578 10.2857 17.5714 10.2857H20.1429C20.4839 10.2857 20.8109 10.1503 21.052 9.90914C21.2931 9.66802 21.4286 9.34099 21.4286 9C21.4286 8.65901 21.2931 8.33198 21.052 8.09086C20.8109 7.84975 20.4839 7.71429 20.1429 7.71429H17.5714C16.7758 7.71429 16.0127 8.03036 15.4501 8.59297C14.8875 9.15557 14.5714 9.91864 14.5714 10.7143Z" fill="#222222"/>
</g>
<defs>
<clipPath id="clip0_464_56">
<rect width="24" height="24" fill="white"/>
</clipPath>
</defs>
</svg>
