<svg width="28" height="28" viewBox="0 0 28 28" fill="none" xmlns="http://www.w3.org/2000/svg">
<g clip-path="url(#clip0_464_56)">
<rect x="14" y="3" width="29" height="42" fill="white"/>
<path d="M0 6C0 4.4087 0.632141 2.88258 1.75736 1.75736C2.88258 0.632141 4.4087 0 6 0H22C23.5913 0 25.1174 0.632141 26.2426 1.75736C27.3679 2.88258 28 4.4087 28 6V22C28 23.5913 27.3679 25.1174 26.2426 26.2426C25.1174 27.3679 23.5913 28 22 28H6C4.4087 28 2.88258 27.3679 1.75736 26.2426C0.632141 25.1174 0 23.5913 0 22V6ZM14.5 9C14.1022 9 13.7206 9.15804 13.4393 9.43934C13.158 9.72064 13 10.1022 13 10.5V20.5C13 20.6326 12.9473 20.7598 12.8536 20.8536C12.7598 20.9473 12.6326 21 12.5 21H10.5C10.1022 21 9.72064 21.158 9.43934 21.4393C9.15804 21.7206 9 22.1022 9 22.5C9 22.8978 9.15804 23.2794 9.43934 23.5607C9.72064 23.842 10.1022 24 10.5 24H12.5C13.4283 24 14.3185 23.6313 14.9749 22.9749C15.6313 22.3185 16 21.4283 16 20.5V10.5C16 10.1022 15.842 9.72064 15.5607 9.43934C15.2794 9.15804 14.8978 9 14.5 9ZM17 12.5V14.5C17 16.432 18.568 18 20.5 18H21.5C21.6326 18 21.7598 18.0527 21.8536 18.1464C21.9473 18.2402 22 18.3674 22 18.5V20.5C22 20.6326 21.9473 20.7598 21.8536 20.8536C21.7598 20.9473 21.6326 21 21.5 21H18.5C18.1022 21 17.7206 21.158 17.4393 21.4393C17.158 21.7206 17 22.1022 17 22.5C17 22.8978 17.158 23.2794 17.4393 23.5607C17.7206 23.842 18.1022 24 18.5 24H21.5C22.4283 24 23.3185 23.6313 23.9749 22.9749C24.6313 22.3185 25 21.4283 25 20.5V18.5C25 17.5717 24.6313 16.6815 23.9749 16.0251C23.3185 15.3687 22.4283 15 21.5 15H20.5C20.3674 15 20.2402 14.9473 20.1464 14.8536C20.0527 14.7598 20 14.6326 20 14.5V12.5C20 12.3674 20.0527 12.2402 20.1464 12.1464C20.2402 12.0527 20.3674 12 20.5 12H23.5C23.8978 12 24.2794 11.842 24.5607 11.5607C24.842 11.2794 25 10.8978 25 10.5C25 10.1022 24.842 9.72064 24.5607 9.43934C24.2794 9.15804 23.8978 9 23.5 9H20.5C19.5717 9 18.6815 9.36875 18.0251 10.0251C17.3687 10.6815 17 11.5717 17 12.5Z" fill="#222222"/>
</g>
<defs>
<clipPath id="clip0_464_56">
<rect width="28" height="28" fill="white"/>
</clipPath>
</defs>
</svg>
