<svg width="24" height="24" viewBox="0 0 24 24" fill="none" xmlns="http://www.w3.org/2000/svg">
<g clip-path="url(#clip0_464_85)">
<rect width="24" height="24" fill="#222222"/>
<path d="M13.4859 12.0005L16.7147 6.56119L18.2749 12.0005L16.7146 17.4386L13.4859 12.0005ZM11.9122 12.8839L15.1414 18.3223L9.51753 16.9167L5.45464 12.8839H11.9122ZM15.1407 5.67717L11.9122 11.1165H5.45464L9.51753 7.08341L15.1407 5.67717ZM19.75 10.1494L17.7802 3L10.4281 4.91604L9.33973 6.78281L7.13134 6.76738L1.75 12.001L7.13134 17.2334L9.33903 17.2175L10.4289 19.0843L17.7802 21L19.7499 13.852L18.6313 12.0006L19.75 10.1494Z" fill="white"/>
</g>
<defs>
<clipPath id="clip0_464_85">
<rect width="24" height="24" rx="5.5" fill="white"/>
</clipPath>
</defs>
</svg>
