<svg width="28" height="28" viewBox="0 0 28 28" fill="none" xmlns="http://www.w3.org/2000/svg">
<g clip-path="url(#clip0_464_99)">
<path d="M21.4375 0H6.5625C2.93813 0 0 2.93813 0 6.5625V21.4375C0 25.0619 2.93813 28 6.5625 28H21.4375C25.0619 28 28 25.0619 28 21.4375V6.5625C28 2.93813 25.0619 0 21.4375 0Z" fill="#222222"/>
<path fill-rule="evenodd" clip-rule="evenodd" d="M21.0034 17.2453C21.09 17.1955 21.1621 17.1239 21.2123 17.0375C21.2625 16.9511 21.2891 16.853 21.2894 16.7531L21.2997 13.4565C21.3 13.3565 21.3266 13.2584 21.3768 13.1721C21.4269 13.0857 21.499 13.014 21.5856 12.9643L23.3727 11.9378C23.5035 11.8627 23.6588 11.8426 23.8045 11.8818C23.9502 11.9211 24.0744 12.0165 24.1498 12.1471C24.1997 12.2337 24.226 12.3318 24.226 12.4317V18.425C24.226 18.5252 24.1996 18.6237 24.1494 18.7104C24.0991 18.7972 24.0269 18.8691 23.94 18.919L17.1958 22.7927C17.1097 22.8421 17.0121 22.8682 16.9128 22.8682C16.8135 22.8683 16.7158 22.8425 16.6296 22.7932L11.3368 19.7661C11.2497 19.7162 11.1772 19.6442 11.1268 19.5574C11.0764 19.4706 11.0498 19.372 11.0497 19.2716V16.2496C11.0497 16.2462 11.0538 16.2439 11.0572 16.2455C11.0578 16.246 11.0586 16.2462 11.0594 16.2462C11.0603 16.2463 11.0611 16.2461 11.0618 16.2457C11.0625 16.2452 11.0631 16.2446 11.0634 16.2439C11.0638 16.2432 11.064 16.2424 11.0639 16.2416V16.2382C11.0639 16.2359 11.0651 16.2336 11.0674 16.2325L15.4265 13.7282C15.4304 13.726 15.4287 13.7197 15.4242 13.7197C15.423 13.7197 15.4218 13.7192 15.421 13.7183C15.4201 13.7175 15.4196 13.7163 15.4196 13.7151L15.4281 10.7523C15.4286 10.6521 15.4026 10.5535 15.3528 10.4666C15.3029 10.3797 15.231 10.3074 15.1443 10.2572C15.0576 10.207 14.9592 10.1804 14.8591 10.1803C14.7589 10.1802 14.6604 10.2066 14.5737 10.2567L11.334 12.1235C11.2475 12.1732 11.1495 12.1994 11.0497 12.1994C10.95 12.1994 10.8519 12.1732 10.7655 12.1235L7.51548 10.2521C7.42891 10.2022 7.33074 10.176 7.23082 10.176C7.1309 10.1761 7.03275 10.2024 6.94623 10.2524C6.85971 10.3024 6.78786 10.3742 6.7379 10.4608C6.68794 10.5473 6.66162 10.6455 6.66159 10.7454V16.1003C6.6617 16.2001 6.63557 16.2982 6.58582 16.3847C6.53608 16.4712 6.46446 16.5432 6.37816 16.5933C6.29185 16.6434 6.19388 16.67 6.09407 16.6704C5.99426 16.6707 5.89611 16.6448 5.80945 16.5953L4.00586 15.5642C3.9185 15.5143 3.84591 15.4422 3.79548 15.3551C3.74504 15.2681 3.71857 15.1692 3.71875 15.0686L3.73472 5.70909C3.73493 5.60931 3.76135 5.51134 3.81133 5.42498C3.86131 5.33861 3.9331 5.2669 4.01951 5.217C4.10592 5.16711 4.20392 5.14079 4.3037 5.14067C4.40348 5.14056 4.50154 5.16666 4.58806 5.21636L10.766 8.76481C10.8523 8.8144 10.9502 8.8405 11.0497 8.8405C11.1493 8.8405 11.2471 8.8144 11.3334 8.76481L17.5097 5.21636C17.6406 5.14112 17.7961 5.12095 17.9418 5.16029C18.0876 5.19963 18.2118 5.29526 18.2871 5.42614C18.3369 5.51266 18.3631 5.61087 18.3631 5.71084V15.0726C18.3631 15.1727 18.3367 15.2711 18.2866 15.3578C18.2365 15.4446 18.1644 15.5165 18.0776 15.5665L14.8431 17.4293C14.7562 17.4794 14.6841 17.5516 14.6341 17.6385C14.584 17.7254 14.5578 17.8239 14.5579 17.9242C14.5581 18.0245 14.5848 18.1229 14.6353 18.2096C14.6858 18.2963 14.7582 18.3681 14.8454 18.4177L16.6296 19.4334C16.7158 19.4825 16.8134 19.5083 16.9126 19.5081C17.0118 19.5079 17.1093 19.4818 17.1953 19.4323L21.0034 17.2453ZM21.3777 8.84739C21.3778 8.94812 21.4046 9.04701 21.4554 9.134C21.5062 9.22099 21.5791 9.29298 21.6668 9.34264C21.7544 9.39228 21.8537 9.41778 21.9544 9.41653C22.0552 9.41529 22.1538 9.38733 22.2402 9.33553L23.9492 8.31014C24.0335 8.25956 24.1033 8.18803 24.1518 8.10249C24.2003 8.01696 24.2259 7.92033 24.226 7.822V5.73239C24.2258 5.65708 24.2107 5.58256 24.1815 5.51313C24.1523 5.4437 24.1097 5.38073 24.0561 5.32786C24.0025 5.275 23.9389 5.23327 23.869 5.20511C23.7992 5.17694 23.7245 5.16288 23.6492 5.16375C23.5485 5.16505 23.4499 5.19301 23.3635 5.2448L21.6545 6.27019C21.5701 6.32072 21.5003 6.39226 21.4517 6.47783C21.4032 6.56339 21.3777 6.66007 21.3777 6.75844V8.84794V8.84739Z" fill="white"/>
</g>
<defs>
<clipPath id="clip0_464_99">
<rect width="28" height="28" fill="white"/>
</clipPath>
</defs>
</svg>
