<svg width="28" height="28" viewBox="0 0 28 28" fill="none" xmlns="http://www.w3.org/2000/svg">
<g clip-path="url(#clip0_464_90)">
<path d="M21.4375 0H6.5625C2.93813 0 0 2.93813 0 6.5625V21.4375C0 25.0619 2.93813 28 6.5625 28H21.4375C25.0619 28 28 25.0619 28 21.4375V6.5625C28 2.93813 25.0619 0 21.4375 0Z" fill="#222222"/>
<path d="M14.0005 16.0728C15.1275 16.0728 16.041 15.1592 16.041 14.0323C16.041 12.9054 15.1275 11.9918 14.0005 11.9918C12.8736 11.9918 11.96 12.9054 11.96 14.0323C11.96 15.1592 12.8736 16.0728 14.0005 16.0728Z" fill="white"/>
<path d="M14.0002 9.88342C16.7398 9.88342 19.2849 10.2765 21.2039 10.9373C23.516 11.7332 24.9375 12.9397 24.9375 14.0322C24.9375 15.1707 23.431 16.4525 20.948 17.2751C19.071 17.897 16.6008 18.2216 14.0002 18.2216C11.3339 18.2216 8.80895 17.9169 6.91064 17.2682C4.50898 16.4473 3.0625 15.1491 3.0625 14.0322C3.0625 12.9485 4.41984 11.7513 6.69944 10.9566C8.62553 10.285 11.2338 9.88342 14.0002 9.88342Z" stroke="white"/>
<path d="M10.3882 11.9698C11.7569 9.59656 13.3688 7.58822 14.8998 6.25603C16.7443 4.65073 18.4998 4.02205 19.4461 4.56772C20.4323 5.13647 20.7901 7.08203 20.2624 9.64381C19.8637 11.5805 18.9106 13.8824 17.6113 16.1353C16.2793 18.4451 14.754 20.4801 13.2439 21.8001C11.333 23.4705 9.48554 24.075 8.51811 23.517C7.57935 22.9761 7.22038 21.2019 7.67079 18.8301C8.0513 16.826 9.00669 14.3663 10.3882 11.9698Z" stroke="white"/>
<path d="M10.3918 16.1413C9.01922 13.7707 8.08472 11.3708 7.69469 9.37906C7.22514 6.97927 7.5571 5.1445 8.50264 4.59719C9.488 4.02669 11.3521 4.68841 13.3079 6.42507C14.7867 7.738 16.3051 9.71299 17.6081 11.9637C18.944 14.2713 19.9452 16.6092 20.3347 18.5766C20.8276 21.0664 20.4287 22.9688 19.4621 23.5283C18.5243 24.0712 16.8081 23.4964 14.9782 21.9216C13.4321 20.5912 11.7779 18.5355 10.3918 16.1413Z" stroke="white"/>
</g>
<defs>
<clipPath id="clip0_464_90">
<rect width="28" height="28" fill="white"/>
</clipPath>
</defs>
</svg>
