<svg width="24" height="24" viewBox="0 0 24 24" fill="none" xmlns="http://www.w3.org/2000/svg">
<g clip-path="url(#clip0_464_99)">
<path d="M18.375 0H5.625C2.5184 0 0 2.5184 0 5.625V18.375C0 21.4816 2.5184 24 5.625 24H18.375C21.4816 24 24 21.4816 24 18.375V5.625C24 2.5184 21.4816 0 18.375 0Z" fill="#222222"/>
<path fill-rule="evenodd" clip-rule="evenodd" d="M18.0029 14.7817C18.0772 14.739 18.1389 14.6776 18.1819 14.6036C18.225 14.5295 18.2478 14.4455 18.2481 14.3598L18.2569 11.5341C18.2571 11.4485 18.2799 11.3644 18.323 11.2904C18.3659 11.2163 18.4277 11.1549 18.5019 11.1122L20.0337 10.2324C20.1459 10.168 20.279 10.1508 20.4039 10.1844C20.5287 10.218 20.6352 10.2998 20.6998 10.4118C20.7426 10.486 20.7651 10.5701 20.7652 10.6558V15.7929C20.7652 15.8788 20.7425 15.9632 20.6995 16.0375C20.6564 16.1118 20.5945 16.1735 20.52 16.2163L14.7393 19.5366C14.6654 19.579 14.5818 19.6013 14.4967 19.6014C14.4115 19.6014 14.3279 19.5793 14.2539 19.5371L9.71728 16.9424C9.64258 16.8996 9.58049 16.8379 9.53728 16.7635C9.49407 16.6891 9.47127 16.6046 9.47119 16.5185V13.9282C9.47119 13.9253 9.47466 13.9233 9.47756 13.9247C9.47815 13.9251 9.47882 13.9253 9.47952 13.9253C9.48022 13.9254 9.48091 13.9252 9.48152 13.9248C9.48212 13.9245 9.48262 13.924 9.48294 13.9234C9.48327 13.9227 9.48342 13.922 9.48338 13.9214V13.9184C9.48338 13.9165 9.48441 13.9145 9.48638 13.9136L13.2227 11.7671C13.2261 11.7651 13.2246 11.7598 13.2207 11.7598C13.2197 11.7597 13.2187 11.7593 13.218 11.7586C13.2172 11.7578 13.2168 11.7569 13.2168 11.7558L13.2241 9.21623C13.2245 9.13034 13.2022 9.04587 13.1595 8.97136C13.1168 8.89685 13.0551 8.83495 12.9808 8.79191C12.9065 8.74882 12.8222 8.72609 12.7363 8.72601C12.6505 8.72593 12.5661 8.7485 12.4917 8.79145L9.71484 10.3916C9.64072 10.4342 9.5567 10.4566 9.47119 10.4566C9.38568 10.4566 9.30166 10.4342 9.22753 10.3916L6.44184 8.78751C6.36764 8.74474 6.28349 8.72225 6.19784 8.7223C6.1122 8.72234 6.02807 8.74492 5.95391 8.78776C5.87975 8.8306 5.81816 8.8922 5.77534 8.96637C5.73252 9.04054 5.70996 9.12467 5.70994 9.21032V13.8002C5.71003 13.8858 5.68763 13.9699 5.64499 14.044C5.60235 14.1182 5.54097 14.1799 5.46699 14.2228C5.39302 14.2658 5.30904 14.2886 5.22349 14.2889C5.13794 14.2892 5.05381 14.267 4.97953 14.2245L3.43359 13.3408C3.35871 13.298 3.29649 13.2362 3.25327 13.1616C3.21004 13.0869 3.18735 13.0022 3.1875 12.916L3.20119 4.89351C3.20137 4.80798 3.22401 4.724 3.26685 4.64998C3.30969 4.57595 3.37123 4.51448 3.44529 4.47172C3.51936 4.42895 3.60336 4.40639 3.68888 4.40629C3.77441 4.40619 3.85846 4.42856 3.93263 4.47116L9.228 7.5127C9.302 7.5552 9.38585 7.57757 9.47119 7.57757C9.55653 7.57757 9.64038 7.5552 9.71438 7.5127L15.0083 4.47116C15.1205 4.40667 15.2538 4.38939 15.3787 4.42311C15.5037 4.45683 15.6101 4.53879 15.6746 4.65098C15.7174 4.72513 15.7398 4.80932 15.7398 4.89501V12.9194C15.7398 13.0052 15.7172 13.0895 15.6742 13.1639C15.6313 13.2382 15.5695 13.2999 15.4951 13.3427L12.7226 14.9394C12.6482 14.9824 12.5864 15.0442 12.5435 15.1187C12.5006 15.1932 12.4781 15.2776 12.4782 15.3636C12.4784 15.4496 12.5013 15.534 12.5445 15.6082C12.5878 15.6825 12.6499 15.744 12.7246 15.7866L14.2539 16.6572C14.3278 16.6993 14.4114 16.7214 14.4965 16.7212C14.5816 16.721 14.6651 16.6986 14.7388 16.6562L18.0029 14.7817ZM18.3237 7.58348C18.3238 7.66981 18.3468 7.75458 18.3904 7.82914C18.4339 7.90371 18.4964 7.96541 18.5715 8.00798C18.6466 8.05053 18.7317 8.07239 18.8181 8.07132C18.9044 8.07024 18.989 8.04629 19.063 8.00188L20.5279 7.12298C20.6002 7.07962 20.66 7.01831 20.7016 6.94499C20.7431 6.87168 20.7651 6.78885 20.7652 6.70457V4.91348C20.765 4.84893 20.752 4.78505 20.727 4.72554C20.702 4.66603 20.6655 4.61206 20.6195 4.56674C20.5735 4.52143 20.519 4.48566 20.4592 4.46152C20.3993 4.43738 20.3353 4.42533 20.2707 4.42607C20.1844 4.42718 20.0999 4.45115 20.0258 4.49554L18.561 5.37445C18.4887 5.41776 18.4288 5.47908 18.3872 5.55242C18.3456 5.62577 18.3237 5.70863 18.3237 5.79295V7.58394V7.58348Z" fill="white"/>
</g>
<defs>
<clipPath id="clip0_464_99">
<rect width="24" height="24" fill="white"/>
</clipPath>
</defs>
</svg>
