<svg width="24" height="24" viewBox="0 0 24 24" fill="none" xmlns="http://www.w3.org/2000/svg">
<g clip-path="url(#clip0_464_49)">
<path d="M18.375 0H5.625C2.5184 0 0 2.5184 0 5.625V18.375C0 21.4816 2.5184 24 5.625 24H18.375C21.4816 24 24 21.4816 24 18.375V5.625C24 2.5184 21.4816 0 18.375 0Z" fill="#222222"/>
<path d="M5.03934 9.62353L5.30766 12.6181H12.009V9.62353H5.03934ZM12.0089 3.5625H4.5L4.77225 6.55706H12.0089V3.5625ZM12.0089 20.5163V17.4008L11.9958 17.4042L8.66072 16.5037L8.44753 14.1154H5.44144L5.86097 18.8173L11.9951 20.5202L12.0089 20.5163Z" fill="#EBEBEB"/>
<path d="M15.6865 12.6181L15.3389 16.5018L11.999 17.4033V20.5187L18.1381 18.8173L18.1831 18.3113L18.8867 10.4277L18.9598 9.62353L19.5004 3.5625H11.999V6.55706H16.2186L15.9462 9.62353H11.999V12.6181H15.6865Z" fill="white"/>
</g>
<defs>
<clipPath id="clip0_464_49">
<rect width="24" height="24" fill="white"/>
</clipPath>
</defs>
</svg>
