<svg width="28" height="28" viewBox="0 0 28 28" fill="none" xmlns="http://www.w3.org/2000/svg">
<g clip-path="url(#clip0_464_105)">
<path d="M21.4375 0H6.5625C2.93813 0 0 2.93813 0 6.5625V21.4375C0 25.0619 2.93813 28 6.5625 28H21.4375C25.0619 28 28 25.0619 28 21.4375V6.5625C28 2.93813 25.0619 0 21.4375 0Z" fill="#222222"/>
<path fill-rule="evenodd" clip-rule="evenodd" d="M9.07812 12.0312C9.73438 9.40625 11.3751 8.09375 14 8.09375C17.9375 8.09375 18.4297 11.0469 20.3984 11.5391C21.711 11.8673 22.8594 11.3751 23.8438 10.0625C23.1876 12.6874 21.5468 14 18.9219 14C14.9844 14 14.4922 11.0469 12.5234 10.5547C11.2108 10.2266 10.0625 10.7188 9.07812 12.0312ZM4.15625 17.9375C4.8125 15.3126 6.45312 14 9.07812 14C13.0156 14 13.5078 16.9531 15.4766 17.4453C16.7892 17.7735 17.9375 17.2814 18.9219 15.9688C18.2657 18.5936 16.6249 19.9062 14 19.9062C10.0625 19.9062 9.57031 16.9531 7.60156 16.4609C6.28906 16.1327 5.14062 16.6249 4.15625 17.9375Z" fill="white"/>
</g>
<defs>
<clipPath id="clip0_464_105">
<rect width="28" height="28" fill="white"/>
</clipPath>
</defs>
</svg>
