<svg width="28" height="28" viewBox="0 0 28 28" fill="none" xmlns="http://www.w3.org/2000/svg">
<g clip-path="url(#clip0_464_85)">
<rect width="28" height="28" fill="#222222"/>
<path d="M15.7339 14.0006L19.5008 7.65472L21.321 14.0006L19.5007 20.345L15.7339 14.0006ZM13.8979 15.0312L17.6653 21.3761L11.1041 19.7362L6.36407 15.0312H13.8979ZM17.6645 6.62337L13.8979 12.9693H6.36407L11.1041 8.26398L17.6645 6.62337ZM23.042 11.841L20.7439 3.5L12.1664 5.73538L10.8967 7.91328L8.32022 7.89527L2.04199 14.0012L8.32022 20.1057L10.8959 20.0871L12.1674 22.265L20.7439 24.5L23.0419 16.1606L21.7368 14.0007L23.042 11.841Z" fill="white"/>
</g>
<defs>
<clipPath id="clip0_464_85">
<rect width="28" height="28" rx="6.41667" fill="white"/>
</clipPath>
</defs>
</svg>
