<svg width="200" height="200" viewBox="0 0 200 200" fill="none" xmlns="http://www.w3.org/2000/svg">
<g clip-path="url(#clip0_364_42)">
<path fill-rule="evenodd" clip-rule="evenodd" d="M55.5556 44.4444C55.5556 32.657 60.2381 21.3524 68.573 13.0175C76.908 4.68252 88.2126 0 100 0C111.787 0 123.092 4.68252 131.427 13.0175C139.762 21.3524 144.444 32.657 144.444 44.4444C144.444 56.2318 139.762 67.5365 131.427 75.8714C123.092 84.2064 111.787 88.8889 100 88.8889C88.2126 88.8889 76.908 84.2064 68.573 75.8714C60.2381 67.5365 55.5556 56.2318 55.5556 44.4444ZM55.5556 111.111C40.8213 111.111 26.6905 116.964 16.2718 127.383C5.85316 137.802 0 151.932 0 166.667C0 175.507 3.5119 183.986 9.76311 190.237C16.0143 196.488 24.4928 200 33.3333 200H166.667C175.507 200 183.986 196.488 190.237 190.237C196.488 183.986 200 175.507 200 166.667C200 151.932 194.147 137.802 183.728 127.383C173.309 116.964 159.179 111.111 144.444 111.111H55.5556Z" fill="#222222"/>
</g>
<defs>
<clipPath id="clip0_364_42">
<rect width="200" height="200" fill="white"/>
</clipPath>
</defs>
</svg>
