<svg width="200" height="200" viewBox="0 0 200 200" fill="none" xmlns="http://www.w3.org/2000/svg">
<g clip-path="url(#clip0_366_44)">
<path d="M160 0C151 0 140 10 140 20H60C60 10 49 0 40 0H0V90C0 100 10 110 20 110H42C46 130 59 147 90 150V170.8C60 175.4 60 200 60 200H140C140 200 140 175.4 110 170.8V150C141 147 154 130 158 110H180C190 110 200 100 200 90V0H160ZM40 90H20V20H40V90ZM180 90H160V20H180V90Z" fill="#222222"/>
</g>
<defs>
<clipPath id="clip0_366_44">
<rect width="200" height="200" fill="white"/>
</clipPath>
</defs>
</svg>
