<svg width="17" height="17" viewBox="0 0 17 17" fill="none" xmlns="http://www.w3.org/2000/svg">
<path d="M12.0634 8.87586L6.75086 14.1884C6.67656 14.2627 6.58186 14.3134 6.47876 14.3339C6.37565 14.3545 6.26877 14.3439 6.17164 14.3037C6.07452 14.2635 5.99152 14.1953 5.93315 14.1079C5.87478 14.0204 5.84367 13.9176 5.84375 13.8125V3.1875C5.84367 3.08237 5.87478 2.97957 5.93315 2.89213C5.99152 2.80469 6.07452 2.73654 6.17164 2.69629C6.26877 2.65605 6.37565 2.64553 6.47876 2.66606C6.58186 2.68659 6.67656 2.73726 6.75086 2.81164L12.0634 8.12414C12.1128 8.17348 12.1519 8.23207 12.1787 8.29656C12.2054 8.36105 12.2192 8.43018 12.2192 8.5C12.2192 8.56981 12.2054 8.63894 12.1787 8.70344C12.1519 8.76793 12.1128 8.82652 12.0634 8.87586Z" fill="#80574E"/>
</svg>
