<svg width="200" height="200" viewBox="0 0 200 200" fill="none" xmlns="http://www.w3.org/2000/svg">
<path d="M148.75 13H50.25C37.1881 13 24.6612 18.7288 15.425 28.9261C6.18882 39.1234 1 52.9539 1 67.375V187H178.3C183.525 187 188.536 184.708 192.23 180.63C195.924 176.551 198 171.018 198 165.25V67.375C198 52.9539 192.811 39.1234 183.575 28.9261C174.339 18.7288 161.812 13 148.75 13ZM79.8 165.25H20.7V67.375C20.7 58.7223 23.8133 50.424 29.355 44.3056C34.8967 38.1873 42.4129 34.75 50.25 34.75C58.0871 34.75 65.6033 38.1873 71.145 44.3056C76.6867 50.424 79.8 58.7223 79.8 67.375V165.25ZM168.45 132.625H148.75V110.875H109.35V89.125H168.45V132.625ZM69.95 89.125H30.55V67.375H69.95V89.125Z" fill="#222222"/>
</svg>
