<svg width="204" height="204" viewBox="0 0 204 204" fill="none" xmlns="http://www.w3.org/2000/svg">
<path d="M136 76.5H68C39.8353 76.5 17 99.3353 17 127.5C17 155.665 39.8353 178.5 68 178.5H136C164.165 178.5 187 155.665 187 127.5C187 99.3353 164.165 76.5 136 76.5Z" stroke="#888888" stroke-width="17" stroke-linejoin="round"/>
<path d="M68 110.5V144.5M51 127.5H85M102 68V41.2845H136V17" stroke="#888888" stroke-width="17" stroke-linecap="round" stroke-linejoin="round"/>
<path d="M136 144.5C140.509 144.5 144.833 142.709 148.021 139.521C151.209 136.333 153 132.009 153 127.5C153 122.991 151.209 118.667 148.021 115.479C144.833 112.291 140.509 110.5 136 110.5C131.491 110.5 127.167 112.291 123.979 115.479C120.791 118.667 119 122.991 119 127.5C119 132.009 120.791 136.333 123.979 139.521C127.167 142.709 131.491 144.5 136 144.5Z" stroke="#888888" stroke-width="17" stroke-linejoin="round"/>
</svg>
