<svg width="37" height="37" viewBox="0 0 37 37" fill="none" xmlns="http://www.w3.org/2000/svg">
<g clip-path="url(#clip0_245_526)">
<path d="M18.3616 0.412109C15.9889 0.412109 13.6395 0.891045 11.4474 1.82157C9.25532 2.7521 7.26356 4.11599 5.58583 5.83538C2.19749 9.30783 0.293945 14.0175 0.293945 18.9283C0.293945 27.1125 5.47935 34.056 12.6522 36.5187C13.5556 36.6668 13.8447 36.0928 13.8447 35.5929V32.4636C8.83993 33.5746 7.77394 29.9825 7.77394 29.9825C6.94283 27.8346 5.76844 27.2606 5.76844 27.2606C4.12428 26.1126 5.89491 26.1496 5.89491 26.1496C7.70167 26.2792 8.65926 28.0568 8.65926 28.0568C10.2311 30.8712 12.8871 30.038 13.9169 29.5936C14.0795 28.3901 14.5493 27.5754 15.0552 27.1125C11.0442 26.6495 6.83442 25.0572 6.83442 18.0025C6.83442 15.9472 7.521 14.2993 8.69539 12.9846C8.51471 12.5217 7.88235 10.596 8.87607 8.09633C8.87607 8.09633 10.3937 7.59639 13.8447 9.98498C15.272 9.57762 16.8258 9.37395 18.3616 9.37395C19.8973 9.37395 21.4511 9.57762 22.8785 9.98498C26.3294 7.59639 27.8471 8.09633 27.8471 8.09633C28.8408 10.596 28.2084 12.5217 28.0278 12.9846C29.2021 14.2993 29.8887 15.9472 29.8887 18.0025C29.8887 25.0757 25.6609 26.631 21.6318 27.0939C22.2822 27.6679 22.8785 28.7974 22.8785 30.5194V35.5929C22.8785 36.0928 23.1676 36.6853 24.089 36.5187C31.2619 34.0375 36.4292 27.1125 36.4292 18.9283C36.4292 16.4967 35.9619 14.0889 35.0539 11.8425C34.1459 9.59597 32.815 7.55476 31.1373 5.83538C29.4596 4.11599 27.4678 2.7521 25.2758 1.82157C23.0837 0.891045 20.7342 0.412109 18.3616 0.412109Z" fill="#80574E"/>
</g>
<defs>
<clipPath id="clip0_245_526">
<rect width="36" height="36" fill="white" transform="translate(0.293945 0.412109)"/>
</clipPath>
</defs>
</svg>
