<svg width="37" height="37" viewBox="0 0 37 37" fill="none" xmlns="http://www.w3.org/2000/svg">
<g clip-path="url(#clip0_245_530)">
<path d="M24.3311 10.5371H13.0811C12.4843 10.5371 11.912 10.7742 11.4901 11.1961C11.0681 11.6181 10.8311 12.1904 10.8311 12.7871V24.0371C10.8311 24.6338 11.0681 25.2061 11.4901 25.6281C11.912 26.0501 12.4843 26.2871 13.0811 26.2871H24.3311C24.9278 26.2871 25.5001 26.0501 25.922 25.6281C26.344 25.2061 26.5811 24.6338 26.5811 24.0371V12.7871C26.5811 12.1904 26.344 11.6181 25.922 11.1961C25.5001 10.7742 24.9278 10.5371 24.3311 10.5371ZM18.7061 22.9121C17.816 22.9121 16.946 22.6482 16.206 22.1537C15.466 21.6593 14.8892 20.9565 14.5486 20.1342C14.208 19.3119 14.1189 18.4071 14.2925 17.5342C14.4662 16.6613 14.8947 15.8595 15.5241 15.2301C16.1534 14.6008 16.9552 14.1722 17.8281 13.9986C18.7011 13.8249 19.6059 13.9141 20.4281 14.2547C21.2504 14.5952 21.9532 15.172 22.4477 15.912C22.9421 16.6521 23.2061 17.5221 23.2061 18.4121C23.2061 19.6056 22.7319 20.7502 21.888 21.5941C21.0441 22.438 19.8995 22.9121 18.7061 22.9121ZM23.7686 14.7559C23.4904 14.7559 23.2185 14.6734 22.9873 14.5189C22.756 14.3643 22.5758 14.1447 22.4693 13.8878C22.3629 13.6308 22.3351 13.348 22.3893 13.0753C22.4436 12.8025 22.5775 12.5519 22.7742 12.3552C22.9709 12.1586 23.2214 12.0246 23.4942 11.9704C23.767 11.9161 24.0497 11.944 24.3067 12.0504C24.5637 12.1568 24.7833 12.3371 24.9378 12.5683C25.0923 12.7996 25.1748 13.0715 25.1748 13.3496C25.1748 13.7226 25.0266 14.0803 24.7629 14.344C24.4992 14.6077 24.1415 14.7559 23.7686 14.7559Z" fill="#80574E"/>
<path d="M18.7061 20.6621C19.9487 20.6621 20.9561 19.6548 20.9561 18.4121C20.9561 17.1695 19.9487 16.1621 18.7061 16.1621C17.4634 16.1621 16.4561 17.1695 16.4561 18.4121C16.4561 19.6548 17.4634 20.6621 18.7061 20.6621Z" fill="#80574E"/>
<path d="M18.7061 0.412109C15.146 0.412109 11.6659 1.46779 8.7058 3.44566C5.74571 5.42352 3.43861 8.23474 2.07623 11.5238C0.713854 14.8129 0.357394 18.4321 1.05193 21.9237C1.74646 25.4154 3.4608 28.6227 5.97814 31.14C8.49549 33.6574 11.7028 35.3717 15.1944 36.0662C18.6861 36.7608 22.3053 36.4043 25.5944 35.0419C28.8834 33.6796 31.6947 31.3725 33.6725 28.4124C35.6504 25.4523 36.7061 21.9722 36.7061 18.4121C36.7061 13.6382 34.8096 9.05984 31.434 5.68419C28.0583 2.30853 23.48 0.412109 18.7061 0.412109ZM28.8311 24.0371C28.8311 25.2306 28.357 26.3752 27.513 27.2191C26.6691 28.063 25.5245 28.5371 24.3311 28.5371H13.0811C11.8876 28.5371 10.743 28.063 9.89908 27.2191C9.05517 26.3752 8.58106 25.2306 8.58106 24.0371V12.7871C8.58106 11.5936 9.05517 10.449 9.89908 9.60513C10.743 8.76122 11.8876 8.28711 13.0811 8.28711H24.3311C25.5245 8.28711 26.6691 8.76122 27.513 9.60513C28.357 10.449 28.8311 11.5936 28.8311 12.7871V24.0371Z" fill="#80574E"/>
</g>
<defs>
<clipPath id="clip0_245_530">
<rect width="36" height="36" fill="white" transform="translate(0.706055 0.412109)"/>
</clipPath>
</defs>
</svg>
