<svg width="37" height="37" viewBox="0 0 37 37" fill="none" xmlns="http://www.w3.org/2000/svg">
<g clip-path="url(#clip0_245_528)">
<path d="M18.5 0.412109C8.55875 0.412109 0.5 8.47086 0.5 18.4121C0.5 28.3534 8.55875 36.4121 18.5 36.4121C28.4412 36.4121 36.5 28.3534 36.5 18.4121C36.5 8.47086 28.4412 0.412109 18.5 0.412109ZM14.0937 25.8727H10.4487V14.1427H14.0937V25.8727ZM12.2487 12.7027C11.0975 12.7027 10.3531 11.8871 10.3531 10.8784C10.3531 9.84898 11.12 9.05773 12.2956 9.05773C13.4712 9.05773 14.1912 9.84898 14.2137 10.8784C14.2137 11.8871 13.4712 12.7027 12.2487 12.7027ZM27.4062 25.8727H23.7612V19.3721C23.7612 17.859 23.2325 16.8315 21.9144 16.8315C20.9075 16.8315 20.3094 17.5271 20.045 18.1965C19.9475 18.4346 19.9231 18.7721 19.9231 19.1077V25.8709H16.2762V17.8834C16.2762 16.419 16.2294 15.1946 16.1806 14.1409H19.3475L19.5144 15.7702H19.5875C20.0675 15.0052 21.2431 13.8765 23.21 13.8765C25.6081 13.8765 27.4062 15.4834 27.4062 18.9371V25.8727Z" fill="#80574E"/>
</g>
<defs>
<clipPath id="clip0_245_528">
<rect width="36" height="36" fill="white" transform="translate(0.5 0.412109)"/>
</clipPath>
</defs>
</svg>
