<svg width="24" height="24" viewBox="0 0 24 24" fill="none" xmlns="http://www.w3.org/2000/svg">
<g clip-path="url(#clip0_466_42)">
<path d="M14.7964 2.06075C14.999 2.11744 15.1885 2.2135 15.3539 2.34345C15.5194 2.47339 15.6576 2.63467 15.7607 2.81806C15.8638 3.00146 15.9298 3.20338 15.9548 3.41227C15.9798 3.62117 15.9634 3.83295 15.9065 4.0355L11.1767 20.8871C11.0621 21.296 10.7897 21.6426 10.4194 21.8507C10.0492 22.0588 9.61147 22.1113 9.20253 21.9967C8.79359 21.882 8.44694 21.6096 8.23885 21.2394C8.03077 20.8691 7.97828 20.4314 8.09293 20.0224L12.8227 3.16875C12.8795 2.96624 12.9757 2.7769 13.1057 2.61155C13.2357 2.44621 13.3969 2.3081 13.5803 2.2051C13.7637 2.10211 13.9656 2.03626 14.1744 2.01131C14.3833 1.98636 14.595 2.0028 14.7975 2.05969L14.7964 2.06075ZM7.26033 6.36784C7.56018 6.66806 7.7286 7.07502 7.7286 7.49932C7.7286 7.92363 7.56018 8.33058 7.26033 8.6308L3.8659 12.0284L7.26247 15.425C7.5627 15.7254 7.73131 16.1327 7.73121 16.5574C7.73111 16.9821 7.5623 17.3893 7.26194 17.6896C6.96157 17.9898 6.55423 18.1584 6.12955 18.1583C5.70486 18.1582 5.29761 17.9894 4.99738 17.689L0.468261 13.1599C0.168419 12.8597 0 12.4527 0 12.0284C0 11.6041 0.168419 11.1972 0.468261 10.897L4.99631 6.36784C5.145 6.21905 5.32156 6.10102 5.51589 6.02049C5.71021 5.93996 5.9185 5.89852 6.12886 5.89852C6.33921 5.89852 6.5475 5.93996 6.74183 6.02049C6.93615 6.10102 7.11164 6.21905 7.26033 6.36784ZM16.7391 8.6308C16.5818 8.48422 16.4556 8.30745 16.3681 8.11104C16.2806 7.91464 16.2336 7.70262 16.2298 7.48763C16.226 7.27264 16.2655 7.05909 16.3461 6.85972C16.4266 6.66035 16.5464 6.47924 16.6985 6.3272C16.8505 6.17516 17.0316 6.0553 17.231 5.97477C17.4304 5.89424 17.6439 5.85469 17.8589 5.85848C18.0739 5.86228 18.2859 5.90933 18.4823 5.99684C18.6787 6.08436 18.8555 6.21053 19.0021 6.36784L23.5312 10.8959C23.8314 11.1962 24 11.6033 24 12.0279C24 12.4525 23.8314 12.8597 23.5312 13.1599L19.0032 17.689C18.8545 17.8378 18.678 17.9558 18.4837 18.0363C18.2895 18.1168 18.0813 18.1583 17.871 18.1583C17.6607 18.1584 17.4525 18.117 17.2582 18.0366C17.0639 17.9561 16.8873 17.8382 16.7386 17.6896C16.5899 17.5409 16.4719 17.3644 16.3914 17.1702C16.3108 16.9759 16.2694 16.7677 16.2693 16.5574C16.2693 16.3471 16.3106 16.1389 16.3911 15.9446C16.4715 15.7503 16.5894 15.5737 16.7381 15.425L20.1346 12.0284L16.7391 8.6308Z" fill="#222222"/>
</g>
<defs>
<clipPath id="clip0_466_42">
<rect width="24" height="24" fill="white"/>
</clipPath>
</defs>
</svg>
