<svg width="200" height="200" viewBox="0 0 200 200" fill="none" xmlns="http://www.w3.org/2000/svg">
<path d="M19.4738 173.684C14.408 173.684 10.0699 171.879 6.45933 168.268C2.8488 164.658 1.04661 160.323 1.05275 155.263V44.7369C1.05275 39.6711 2.85801 35.3329 6.46854 31.7224C10.0791 28.1119 14.4142 26.3097 19.4738 26.3158H74.737L93.158 44.7369H166.842C171.908 44.7369 176.246 46.5421 179.857 50.1526C183.467 53.7632 185.269 58.0983 185.263 63.1579H19.4738V155.263L41.5791 81.579H199.079L175.362 160.559C174.134 164.55 171.868 167.737 168.565 170.12C165.261 172.502 161.617 173.69 157.632 173.684H19.4738Z" fill="#222222"/>
</svg>
