<svg width="204" height="204" viewBox="0 0 204 204" fill="none" xmlns="http://www.w3.org/2000/svg">
<path d="M47.3875 17.6289C48.4697 18.1492 49.3829 18.9646 50.022 19.9811C50.6611 20.9977 51.0001 22.1741 51 23.3749C51 30.4299 53.652 34.4929 56.9755 39.4399L57.222 39.7969C60.044 43.9959 63.75 49.4954 63.75 57.3749C63.75 65.4159 59.6955 72.5049 53.516 76.7124C55.1395 78.0724 56.576 79.7469 57.817 81.7529C61.863 88.2979 63.75 98.3024 63.75 112.667C63.75 127.219 61.795 144.695 58.6075 158.652C57.0265 165.588 55.063 171.989 52.7255 176.791C51.6219 179.181 50.1601 181.388 48.3905 183.336C46.6395 185.13 43.945 187.042 40.375 187.042C36.805 187.042 34.1105 185.13 32.368 183.336C30.5933 181.392 29.1309 179.184 28.033 176.791C25.687 171.98 23.7235 165.588 22.1425 158.644C18.8271 143.537 17.1035 128.125 17 112.659C17 98.2939 18.887 88.2979 22.933 81.7529C24.0873 79.8531 25.5395 78.1512 27.234 76.7124C24.0786 74.5701 21.496 71.6874 19.7119 68.3164C17.9279 64.9455 16.9968 61.1888 17 57.3749C17 54.2469 17 48.8664 20.2555 41.9219C23.443 35.1219 29.5035 27.3104 40.6385 18.3939C41.577 17.6432 42.7085 17.1731 43.9026 17.0377C45.0968 16.9023 46.3048 17.1073 47.3875 17.6289ZM85 126.794C80.4968 126.039 76.1164 124.678 71.978 122.748C72.1565 119.297 72.25 115.914 72.25 112.667C72.25 109.216 72.148 105.918 71.927 102.773C75.6925 105.876 80.138 108.179 85 109.429V89.2499C85 85.8684 86.3433 82.6253 88.7344 80.2343C91.1255 77.8432 94.3685 76.4999 97.75 76.4999H127.5C127.501 70.0143 125.647 63.6639 122.156 58.1977C118.666 52.7315 113.685 48.3776 107.801 45.6496C101.917 42.9217 95.3759 41.9335 88.9487 42.8016C82.5215 43.6698 76.4768 46.3581 71.5275 50.5494C70.057 43.6304 66.64 38.5644 64.4555 35.3259L64.1155 34.8159C71.7524 29.4324 80.7215 26.2503 90.0436 25.6171C99.3658 24.9838 108.683 26.9237 116.978 31.2251C125.272 35.5264 132.226 42.0237 137.08 50.0079C141.933 57.9921 144.5 67.1562 144.5 76.4999H174.25C177.632 76.4999 180.875 77.8432 183.266 80.2343C185.657 82.6253 187 85.8684 187 89.2499V165.75C187 169.131 185.657 172.374 183.266 174.765C180.875 177.157 177.632 178.5 174.25 178.5H97.75C94.3685 178.5 91.1255 177.157 88.7344 174.765C86.3433 172.374 85 169.131 85 165.75V126.794ZM102 126.794V161.5H170V93.4999H141.602C138.563 102.074 133.289 109.682 126.326 115.535C119.362 121.389 110.961 125.276 101.992 126.794H102ZM122.953 93.4999H102V109.429C106.374 108.296 110.48 106.304 114.077 103.569C117.674 100.835 120.691 97.4118 122.953 93.4999Z" fill="#888888"/>
</svg>
