<svg width="21" height="19" viewBox="0 0 21 19" fill="none" xmlns="http://www.w3.org/2000/svg">
<path d="M18.6667 0C19.2855 0 19.879 0.245833 20.3166 0.683417C20.7542 1.121 21 1.71449 21 2.33333V16.3333C21 16.9522 20.7542 17.5457 20.3166 17.9832C19.879 18.4208 19.2855 18.6667 18.6667 18.6667H2.33333C1.71449 18.6667 1.121 18.4208 0.683417 17.9832C0.245833 17.5457 0 16.9522 0 16.3333V2.33333C0 1.71449 0.245833 1.121 0.683417 0.683417C1.121 0.245833 1.71449 0 2.33333 0H18.6667ZM18.6667 7H2.33333V15.1667C2.33337 15.4524 2.43828 15.7282 2.62817 15.9418C2.81805 16.1553 3.07971 16.2917 3.3635 16.3252L3.5 16.3333H17.5C17.7858 16.3333 18.0616 16.2284 18.2751 16.0385C18.4886 15.8486 18.6251 15.587 18.6585 15.3032L18.6667 15.1667V7ZM3.5 2.33333C3.19058 2.33333 2.89383 2.45625 2.67504 2.67504C2.45625 2.89383 2.33333 3.19058 2.33333 3.5C2.33333 3.80942 2.45625 4.10617 2.67504 4.32496C2.89383 4.54375 3.19058 4.66667 3.5 4.66667C3.80942 4.66667 4.10617 4.54375 4.32496 4.32496C4.54375 4.10617 4.66667 3.80942 4.66667 3.5C4.66667 3.19058 4.54375 2.89383 4.32496 2.67504C4.10617 2.45625 3.80942 2.33333 3.5 2.33333ZM7 2.33333C6.69058 2.33333 6.39383 2.45625 6.17504 2.67504C5.95625 2.89383 5.83333 3.19058 5.83333 3.5C5.83333 3.80942 5.95625 4.10617 6.17504 4.32496C6.39383 4.54375 6.69058 4.66667 7 4.66667C7.30942 4.66667 7.60616 4.54375 7.82496 4.32496C8.04375 4.10617 8.16667 3.80942 8.16667 3.5C8.16667 3.19058 8.04375 2.89383 7.82496 2.67504C7.60616 2.45625 7.30942 2.33333 7 2.33333ZM10.5 2.33333C10.1906 2.33333 9.89383 2.45625 9.67504 2.67504C9.45625 2.89383 9.33333 3.19058 9.33333 3.5C9.33333 3.80942 9.45625 4.10617 9.67504 4.32496C9.89383 4.54375 10.1906 4.66667 10.5 4.66667C10.8094 4.66667 11.1062 4.54375 11.325 4.32496C11.5437 4.10617 11.6667 3.80942 11.6667 3.5C11.6667 3.19058 11.5437 2.89383 11.325 2.67504C11.1062 2.45625 10.8094 2.33333 10.5 2.33333Z" fill="white"/>
</svg>
