<svg width="20" height="22" viewBox="0 0 20 22" fill="none" xmlns="http://www.w3.org/2000/svg">
<path d="M5.2886 0.347193C6.07908 0.61497 6.83108 0.985132 7.52541 1.44823C8.50601 1.19761 9.51431 1.07171 10.5264 1.0735C11.5717 1.0735 12.5801 1.20402 13.5253 1.44718C14.2194 0.984528 14.971 0.614724 15.7611 0.347193C16.4948 0.0977222 17.54 -0.306483 18.1611 0.380877C18.5821 0.848239 18.6874 1.63139 18.7621 2.22928C18.8463 2.89664 18.8663 3.7661 18.6453 4.62925C19.4905 5.72081 20 7.0229 20 8.44183C20 10.5913 18.8358 12.4576 17.1127 13.7502C16.2834 14.3644 15.3636 14.846 14.3864 15.1775C14.6116 15.6933 14.7369 16.2638 14.7369 16.8628V20.0206C14.7369 20.2998 14.626 20.5675 14.4286 20.765C14.2312 20.9624 13.9635 21.0733 13.6843 21.0733H7.36857C7.0894 21.0733 6.82166 20.9624 6.62426 20.765C6.42686 20.5675 6.31595 20.2998 6.31595 20.0206V18.9775C5.3107 19.1006 4.46756 18.9912 3.75072 18.687C3.00126 18.3691 2.47916 17.8765 2.08653 17.4049C1.7139 16.9586 1.30759 15.9523 0.720233 15.7565C0.589051 15.7128 0.467757 15.6437 0.363276 15.5531C0.258796 15.4626 0.173176 15.3523 0.111303 15.2287C-0.0136538 14.979 -0.0342933 14.6899 0.053925 14.4249C0.142143 14.16 0.331993 13.9409 0.581709 13.816C0.831426 13.691 1.12055 13.6704 1.38549 13.7586C2.08653 13.9923 2.54337 14.4975 2.856 14.9039C3.36125 15.5565 3.77177 16.4091 4.57177 16.7491C4.90123 16.8891 5.38439 16.9807 6.14017 16.8775L6.31595 16.8417C6.31796 16.2689 6.43726 15.7025 6.66648 15.1775C5.68921 14.846 4.76946 14.3644 3.94019 13.7502C2.21706 12.4576 1.05286 10.5923 1.05286 8.44183C1.05286 7.02501 1.56128 5.72397 2.40442 4.63346C2.18337 3.77031 2.20232 2.89874 2.28653 2.23033L2.29179 2.19033C2.36863 1.5777 2.45811 0.85666 2.88757 0.380877C3.50862 -0.306483 4.55492 0.098775 5.28755 0.348246L5.2886 0.347193Z" fill="white"/>
</svg>
