<svg width="24" height="21" viewBox="0 0 24 21" fill="none" xmlns="http://www.w3.org/2000/svg">
<path d="M12.5714 17.1429C12.5714 13.36 15.6457 10.2857 19.4286 10.2857C20.6857 10.2857 21.8514 10.6286 22.8571 11.2114V2.28571C22.8571 1.67951 22.6163 1.09812 22.1877 0.66947C21.759 0.240816 21.1776 0 20.5714 0H2.28571C1.01714 0 0 1.01714 0 2.28571V16C0 16.6062 0.240816 17.1876 0.66947 17.6162C1.09812 18.0449 1.67951 18.2857 2.28571 18.2857H12.6743C12.6171 17.9086 12.5714 17.5314 12.5714 17.1429ZM2.28571 4.57143V2.28571L11.4286 8L20.5714 2.28571V4.57143L11.4286 10.2857L2.28571 4.57143ZM20.5714 20.5714V18.2857H16V16H20.5714V13.7143L24 17.1429L20.5714 20.5714Z" fill="white"/>
</svg>
