<svg width="40" height="35" viewBox="0 0 40 35" fill="none" xmlns="http://www.w3.org/2000/svg">
<path d="M20.9524 28.5714C20.9524 22.2667 26.0762 17.1429 32.381 17.1429C34.4762 17.1429 36.419 17.7143 38.0952 18.6857V3.80952C38.0952 2.79918 37.6939 1.83021 36.9795 1.11578C36.265 0.401359 35.2961 0 34.2857 0H3.80952C1.69524 0 0 1.69524 0 3.80952V26.6667C0 27.677 0.401359 28.646 1.11578 29.3604C1.83021 30.0748 2.79918 30.4762 3.80952 30.4762H21.1238C21.0286 29.8476 20.9524 29.219 20.9524 28.5714ZM3.80952 7.61905V3.80952L19.0476 13.3333L34.2857 3.80952V7.61905L19.0476 17.1429L3.80952 7.61905ZM34.2857 34.2857V30.4762H26.6667V26.6667H34.2857V22.8571L40 28.5714L34.2857 34.2857Z" fill="#333333"/>
</svg>
