<svg width="48" height="48" viewBox="0 0 48 48" fill="none" xmlns="http://www.w3.org/2000/svg">
<g clip-path="url(#clip0_252_1183)">
<rect x="5" y="3" width="37" height="35" fill="white"/>
<path d="M40.0005 0H8.00097C5.88143 0.00672432 3.85063 0.851686 2.35189 2.35043C0.85315 3.84917 0.00818917 5.87997 0.00146484 7.9995V39.999C0.00146484 44.397 3.60297 47.9985 8.00097 47.9985H40.0005C44.3985 47.9985 48 44.397 48 39.999V7.9995C48 3.6015 44.3985 0 40.0005 0ZM35.625 33.711C35.2254 34.6745 34.5918 35.5232 33.7815 36.18C32.937 36.8595 31.875 37.422 30.5625 37.821C29.2575 38.2275 27.7035 38.43 25.899 38.43H13.0395V10.4295H26.6415C29.157 10.4295 31.173 10.992 32.6805 12.1485C34.2045 13.305 34.9545 15.039 34.9545 17.367C34.9545 18.7815 34.611 19.9845 33.9225 20.9835C33.234 21.9825 32.2425 22.7565 30.9615 23.2965V23.391C32.673 23.751 33.993 24.5625 34.86 25.821C35.727 27.0795 36.18 28.6725 36.18 30.594C36.1811 31.6415 35.9767 32.6791 35.5785 33.648L35.625 33.702V33.711ZM30.0705 26.8125C29.2575 26.0625 28.101 25.695 26.6175 25.695H17.9685V34.4295H26.64C28.116 34.4295 29.28 34.047 30.1005 33.273C30.921 32.499 31.335 31.398 31.335 29.991C31.32 28.608 30.921 27.5385 30.1005 26.811H30.0615L30.0705 26.8125ZM28.875 21.1635C29.664 20.4915 30.054 19.53 30.054 18.273C30.054 16.866 29.703 15.867 28.992 15.297C28.2885 14.727 27.273 14.43 25.938 14.43H17.9385V22.1565H25.938C27.102 22.1565 28.1025 21.813 28.8675 21.165L28.875 21.1635Z" fill="#222222"/>
</g>
<defs>
<clipPath id="clip0_252_1183">
<rect width="48" height="48" fill="white"/>
</clipPath>
</defs>
</svg>
