<svg width="24" height="24" viewBox="0 0 24 24" fill="none" xmlns="http://www.w3.org/2000/svg">
<path d="M17.8501 1.56H6.03012C4.46269 1.56 2.95946 2.24745 1.85112 3.47113C0.742776 4.6948 0.120117 6.35446 0.120117 8.085V22.44H21.3961C22.0231 22.44 22.6244 22.165 23.0677 21.6755C23.5111 21.1861 23.7601 20.5222 23.7601 19.83V8.085C23.7601 6.35446 23.1375 4.6948 22.0291 3.47113C20.9208 2.24745 19.4175 1.56 17.8501 1.56ZM9.57612 19.83H2.48412V8.085C2.48412 7.04667 2.85771 6.05088 3.52272 5.31667C4.18772 4.58247 5.08966 4.17 6.03012 4.17C6.97057 4.17 7.87251 4.58247 8.53752 5.31667C9.20252 6.05088 9.57612 7.04667 9.57612 8.085V19.83ZM20.2141 15.915H17.8501V13.305H13.1221V10.695H20.2141V15.915ZM8.39412 10.695H3.66612V8.085H8.39412V10.695Z" fill="#222222"/>
</svg>
