<svg width="48" height="48" viewBox="0 0 48 48" fill="none" xmlns="http://www.w3.org/2000/svg">
<g clip-path="url(#clip0_252_1133)">
<path d="M36.75 0H11.25C5.0368 0 0 5.0368 0 11.25V36.75C0 42.9632 5.0368 48 11.25 48H36.75C42.9632 48 48 42.9632 48 36.75V11.25C48 5.0368 42.9632 0 36.75 0Z" fill="#222222"/>
<mask id="mask0_252_1133" style="mask-type:luminance" maskUnits="userSpaceOnUse" x="11" y="5" width="26" height="38">
<path d="M11.4375 5.25H36.4425V42.75H11.4375V5.25Z" fill="white"/>
</mask>
<g mask="url(#mask0_252_1133)">
<path d="M17.6901 42.7499C21.1401 42.7499 23.94 39.95 23.94 36.5V30.2499H17.6901C14.2401 30.2499 11.4399 33.05 11.4399 36.5C11.4399 39.95 14.2401 42.7499 17.6901 42.7499Z" fill="white"/>
<path d="M11.4399 24.0001C11.4399 20.5501 14.2401 17.7501 17.6901 17.7501H23.94V30.25H17.6901C14.2401 30.25 11.4399 27.4501 11.4399 24.0001Z" fill="#CDCDCD"/>
<path d="M11.4399 11.4999C11.4399 8.04994 14.2401 5.25 17.6901 5.25H23.94V17.7501H17.6901C14.2401 17.7501 11.4399 14.9499 11.4399 11.4999Z" fill="white"/>
<path d="M23.9399 5.25H30.1899C33.6399 5.25 36.44 8.04994 36.44 11.4999C36.44 14.9499 33.6399 17.7501 30.1899 17.7501H23.9399V5.25Z" fill="#CDCDCD"/>
<path d="M36.44 24.0001C36.44 27.4501 33.6399 30.25 30.1899 30.25C26.7399 30.25 23.9399 27.4501 23.9399 24.0001C23.9399 20.5501 26.7399 17.7501 30.1899 17.7501C33.6399 17.7501 36.44 20.5501 36.44 24.0001Z" fill="white"/>
</g>
</g>
<defs>
<clipPath id="clip0_252_1133">
<rect width="48" height="48" fill="white"/>
</clipPath>
</defs>
</svg>
