<svg width="24" height="23" viewBox="0 0 24 23" fill="none" xmlns="http://www.w3.org/2000/svg">
<path d="M5.03673 2.51962C5.03639 3.18753 4.77075 3.82796 4.29822 4.30001C3.8257 4.77205 3.18502 5.03706 2.5171 5.03673C1.84919 5.03639 1.20877 4.77075 0.736721 4.29822C0.264673 3.8257 -0.00033364 3.18502 3.15251e-07 2.5171C0.000334271 1.84919 0.265981 1.20877 0.738502 0.736721C1.21102 0.264673 1.85171 -0.00033364 2.51962 3.15251e-07C3.18753 0.000334271 3.82796 0.265981 4.30001 0.738502C4.77205 1.21102 5.03706 1.85171 5.03673 2.51962ZM5.11228 6.90157H0.0755511V22.6665H5.11228V6.90157ZM13.0703 6.90157H8.05876V22.6665H13.0199V14.3937C13.0199 9.7851 19.0262 9.35698 19.0262 14.3937V22.6665H24V12.6812C24 4.91207 15.1102 5.20168 13.0199 9.017L13.0703 6.90157Z" fill="white"/>
</svg>
