<svg width="49" height="48" viewBox="0 0 49 48" fill="none" xmlns="http://www.w3.org/2000/svg">
<g clip-path="url(#clip0_252_1171)">
<path d="M37.25 0H11.75C5.5368 0 0.5 5.0368 0.5 11.25V36.75C0.5 42.9632 5.5368 48 11.75 48H37.25C43.4632 48 48.5 42.9632 48.5 36.75V11.25C48.5 5.0368 43.4632 0 37.25 0Z" fill="#222222"/>
<path fill-rule="evenodd" clip-rule="evenodd" d="M36.5058 29.5633C36.6543 29.478 36.7778 29.3551 36.8639 29.207C36.9499 29.0589 36.9955 28.8908 36.9961 28.7195L37.0138 23.0681C37.0142 22.8968 37.0598 22.7286 37.1459 22.5806C37.2319 22.4325 37.3553 22.3096 37.5039 22.2243L40.5674 20.4646C40.7918 20.3359 41.058 20.3014 41.3077 20.3687C41.5575 20.436 41.7703 20.5995 41.8996 20.8235C41.9852 20.9719 42.0303 21.1401 42.0303 21.3114V31.5856C42.0303 31.7574 41.985 31.9262 41.8989 32.0749C41.8128 32.2236 41.689 32.3469 41.54 32.4324L29.9786 39.0731C29.8309 39.1578 29.6636 39.2024 29.4933 39.2026C29.3231 39.2028 29.1557 39.1584 29.0079 39.074L19.9346 33.8846C19.7852 33.7991 19.661 33.6757 19.5746 33.5269C19.4881 33.378 19.4425 33.209 19.4424 33.0369V27.8563C19.4424 27.8505 19.4493 27.8465 19.4551 27.8493C19.4563 27.8501 19.4576 27.8505 19.459 27.8506C19.4604 27.8506 19.4618 27.8503 19.463 27.8496C19.4642 27.8489 19.4652 27.8478 19.4659 27.8466C19.4665 27.8454 19.4668 27.844 19.4668 27.8426V27.8368C19.4668 27.8328 19.4688 27.8289 19.4728 27.827L26.9454 23.534C26.9521 23.5301 26.9491 23.5194 26.9414 23.5194C26.9394 23.5193 26.9374 23.5185 26.9359 23.517C26.9345 23.5156 26.9336 23.5136 26.9336 23.5115L26.9482 18.4323C26.949 18.2606 26.9044 18.0916 26.819 17.9426C26.7336 17.7936 26.6103 17.6698 26.4616 17.5837C26.3131 17.4975 26.1444 17.4521 25.9727 17.4519C25.8009 17.4517 25.6322 17.4969 25.4834 17.5828L19.9297 20.783C19.7814 20.8683 19.6134 20.9132 19.4424 20.9132C19.2714 20.9132 19.1033 20.8683 18.9551 20.783L13.3837 17.5749C13.2353 17.4894 13.067 17.4444 12.8957 17.4445C12.7244 17.4446 12.5561 17.4897 12.4078 17.5754C12.2595 17.6611 12.1363 17.7843 12.0507 17.9326C11.965 18.081 11.9199 18.2492 11.9199 18.4205V27.6003C11.9201 27.7714 11.8753 27.9396 11.79 28.0879C11.7047 28.2363 11.5819 28.3596 11.434 28.4455C11.286 28.5315 11.1181 28.5771 10.947 28.5777C10.7759 28.5782 10.6076 28.5339 10.4591 28.449L7.36719 26.6814C7.21742 26.5959 7.09298 26.4722 7.00653 26.323C6.92008 26.1738 6.87469 26.0043 6.875 25.8318L6.90238 9.78689C6.90274 9.61584 6.94803 9.44788 7.03371 9.29984C7.11938 9.15179 7.24245 9.02884 7.39058 8.94331C7.53872 8.85777 7.70672 8.81265 7.87777 8.81246C8.04882 8.81227 8.21693 8.85701 8.36525 8.94221L18.956 15.0253C19.104 15.1103 19.2717 15.155 19.4424 15.155C19.6131 15.155 19.7808 15.1103 19.9288 15.0253L30.5167 8.94221C30.7411 8.81323 31.0075 8.77866 31.2574 8.8461C31.5073 8.91354 31.7202 9.07746 31.8493 9.30183C31.9348 9.45014 31.9796 9.61852 31.9796 9.78989V25.8386C31.9796 26.0103 31.9344 26.179 31.8485 26.3276C31.7626 26.4763 31.639 26.5996 31.4902 26.6853L25.9452 29.8786C25.7964 29.9646 25.6728 30.0883 25.587 30.2373C25.5012 30.3862 25.4561 30.5552 25.4564 30.7271C25.4568 30.899 25.5025 31.0678 25.5891 31.2163C25.6756 31.3649 25.7998 31.488 25.9492 31.5731L29.0079 33.3142C29.1557 33.3985 29.3229 33.4426 29.493 33.4423C29.6631 33.442 29.8302 33.3972 29.9776 33.3123L36.5058 29.5633ZM37.1474 15.1668C37.1477 15.3395 37.1937 15.509 37.2807 15.6582C37.3678 15.8073 37.4928 15.9307 37.643 16.0158C37.7933 16.1009 37.9635 16.1446 38.1362 16.1425C38.3089 16.1404 38.4779 16.0924 38.6261 16.0036L41.5558 14.2458C41.7003 14.1591 41.82 14.0365 41.9031 13.8899C41.9863 13.7432 42.0301 13.5776 42.0303 13.409V9.82683C42.03 9.69773 42.004 9.56998 41.954 9.45096C41.904 9.33193 41.8309 9.22399 41.739 9.13336C41.6471 9.04273 41.5381 8.97121 41.4184 8.92292C41.2986 8.87463 41.1705 8.85053 41.0414 8.85202C40.8688 8.85424 40.6998 8.90218 40.5517 8.99096L37.622 10.7488C37.4773 10.8354 37.3576 10.958 37.2744 11.1047C37.1912 11.2514 37.1475 11.4171 37.1474 11.5858V15.1678V15.1668Z" fill="white"/>
</g>
<defs>
<clipPath id="clip0_252_1171">
<rect width="48" height="48" fill="white" transform="translate(0.5)"/>
</clipPath>
</defs>
</svg>
