<svg width="49" height="48" viewBox="0 0 49 48" fill="none" xmlns="http://www.w3.org/2000/svg">
<g clip-path="url(#clip0_252_1162)">
<path d="M37.25 0H11.75C5.5368 0 0.5 5.0368 0.5 11.25V36.75C0.5 42.9632 5.5368 48 11.75 48H37.25C43.4632 48 48.5 42.9632 48.5 36.75V11.25C48.5 5.0368 43.4632 0 37.25 0Z" fill="#222222"/>
<path d="M24.5 27.5534C26.432 27.5534 27.998 25.9872 27.998 24.0554C27.998 22.1236 26.432 20.5574 24.5 20.5574C22.5681 20.5574 21.002 22.1236 21.002 24.0554C21.002 25.9872 22.5681 27.5534 24.5 27.5534Z" fill="white"/>
<path d="M24.5004 16.9431C29.1969 16.9431 33.5598 17.617 36.8495 18.7497C40.8131 20.1141 43.25 22.1824 43.25 24.0554C43.25 26.0071 40.6674 28.2044 36.4109 29.6146C33.1931 30.6807 28.9586 31.2372 24.5004 31.2372C19.9295 31.2372 15.6011 30.7148 12.3468 29.6027C8.22969 28.1956 5.75 25.9699 5.75 24.0554C5.75 22.1976 8.07687 20.1452 11.9847 18.7829C15.2866 17.6316 19.7579 16.9431 24.5004 16.9431Z" stroke="white" stroke-width="2"/>
<path d="M18.3091 20.5196C20.6554 16.4512 23.4186 13.0084 26.0432 10.7246C29.2052 7.97269 32.2146 6.89494 33.8369 7.83037C35.5276 8.80537 36.1409 12.1406 35.2362 16.5322C34.5527 19.8523 32.9189 23.7984 30.6916 27.6606C28.408 31.6202 25.7933 35.1088 23.2045 37.3716C19.9287 40.2351 16.7616 41.2714 15.1032 40.3149C13.4939 39.3876 12.8785 36.3461 13.6506 32.2802C14.3029 28.8446 15.9407 24.6279 18.3091 20.5196Z" stroke="white" stroke-width="2"/>
<path d="M18.3149 27.6709C15.9619 23.607 14.3599 19.4929 13.6913 16.0785C12.8864 11.9645 13.4554 8.81924 15.0764 7.88099C16.7656 6.90299 19.9611 8.03736 23.314 11.0145C25.849 13.2652 28.4521 16.6509 30.6858 20.5093C32.9759 24.4652 34.6923 28.473 35.3599 31.8457C36.2048 36.114 35.521 39.3752 33.8641 40.3342C32.2564 41.265 29.3144 40.2797 26.1773 37.58C23.5268 35.2993 20.6911 31.7752 18.3149 27.6709Z" stroke="white" stroke-width="2"/>
</g>
<defs>
<clipPath id="clip0_252_1162">
<rect width="48" height="48" fill="white" transform="translate(0.5)"/>
</clipPath>
</defs>
</svg>
