<svg width="49" height="48" viewBox="0 0 49 48" fill="none" xmlns="http://www.w3.org/2000/svg">
<g clip-path="url(#clip0_252_1157)">
<rect x="0.5" width="48" height="48" fill="#222222"/>
<path d="M27.4718 24.0011L33.9294 13.1224L37.0497 24.0011L33.9292 34.8772L27.4718 24.0011ZM24.3244 25.7678L30.7829 36.6447L19.5351 33.8335L11.4093 25.7678H24.3244ZM30.7815 11.3543L24.3244 22.2331H11.4093L19.5351 14.1668L30.7815 11.3543ZM40 20.2988L36.0605 6L21.3561 9.83208L19.1795 13.5656L14.7627 13.5348L4 24.0021L14.7627 34.4669L19.1781 34.4351L21.3578 38.1686L36.0605 42L39.9999 27.7039L37.7626 24.0012L40 20.2988Z" fill="white"/>
</g>
<defs>
<clipPath id="clip0_252_1157">
<rect x="0.5" width="48" height="48" rx="11" fill="white"/>
</clipPath>
</defs>
</svg>
