<svg width="48" height="48" viewBox="0 0 48 48" fill="none" xmlns="http://www.w3.org/2000/svg">
<g clip-path="url(#clip0_503_38)">
<rect width="48" height="48" fill="#222222"/>
<path d="M24.0003 6.85718C14.5546 6.85718 6.85742 14.5543 6.85742 24C6.85742 33.4457 14.5546 41.1429 24.0003 41.1429C33.446 41.1429 41.1431 33.4457 41.1431 24C41.1431 14.5543 33.446 6.85718 24.0003 6.85718ZM8.58885 24C8.58885 21.7715 9.06885 19.6457 9.92599 17.7257L17.2803 37.8686C12.1374 35.3657 8.58885 30.1029 8.58885 24ZM24.0003 39.4115C22.4917 39.4115 21.0346 39.1886 19.646 38.7772L24.2746 25.3372L29.006 38.3143C29.0403 38.3829 29.0746 38.4686 29.1088 38.52C27.5146 39.1029 25.8003 39.4115 24.0003 39.4115ZM26.126 16.7657C27.0517 16.7143 27.8917 16.6115 27.8917 16.6115C28.7146 16.5086 28.6288 15.2915 27.7888 15.3429C27.7888 15.3429 25.286 15.5315 23.6746 15.5315C22.166 15.5315 19.6117 15.3429 19.6117 15.3429C18.7888 15.3086 18.686 16.5772 19.526 16.6286C19.526 16.6286 20.3146 16.7315 21.1374 16.7829L23.5374 23.3657L20.1603 33.48L14.5546 16.7657C15.4803 16.7315 16.3203 16.6286 16.3203 16.6286C17.1431 16.5257 17.0574 15.3086 16.2174 15.36C16.2174 15.36 13.7146 15.5486 12.1031 15.5486C11.8117 15.5486 11.4689 15.5486 11.1089 15.5315C13.886 11.3486 18.6174 8.58861 24.0003 8.58861C28.0117 8.58861 31.6631 10.1143 34.406 12.6343C34.3374 12.6343 34.2689 12.6172 34.2003 12.6172C32.6917 12.6172 31.6117 13.9372 31.6117 15.36C31.6117 16.6286 32.3488 17.7086 33.1203 18.9772C33.7031 20.0057 34.3888 21.3257 34.3888 23.2286C34.3888 24.5486 33.8746 26.0743 33.2231 28.2172L31.6803 33.36L26.126 16.7657ZM37.526 16.6115C39.4515 20.1354 39.9252 24.2719 38.8461 28.1399C37.767 32.0079 35.2205 35.3017 31.7488 37.32L36.4631 23.7086C37.3374 21.5143 37.6288 19.7486 37.6288 18.1886C37.6288 17.6229 37.5946 17.0915 37.526 16.6115Z" fill="white"/>
</g>
<defs>
<clipPath id="clip0_503_38">
<rect width="48" height="48" rx="11" fill="white"/>
</clipPath>
</defs>
</svg>
