<svg width="28" height="28" viewBox="0 0 28 28" fill="none" xmlns="http://www.w3.org/2000/svg">
<g clip-path="url(#clip0_591_42)">
<rect width="28" height="28" fill="#222222"/>
<path d="M11.14 22.035C10.239 21.209 9.976 19.474 10.351 18.216C11.001 19.009 11.903 19.26 12.837 19.402C14.277 19.62 15.693 19.539 17.032 18.878C17.185 18.802 17.327 18.701 17.494 18.6C17.62 18.965 17.653 19.334 17.609 19.71C17.502 20.625 17.049 21.332 16.326 21.868C16.037 22.083 15.732 22.274 15.434 22.476C14.518 23.098 14.27 23.826 14.614 24.886L14.648 25C14.2075 24.808 13.8347 24.4882 13.578 24.082C13.3096 23.6639 13.1667 23.1778 13.166 22.681C13.163 22.433 13.163 22.184 13.13 21.941C13.049 21.346 12.77 21.081 12.247 21.065C11.996 21.0508 11.7483 21.1285 11.5505 21.2837C11.3526 21.4389 11.218 21.6608 11.172 21.908C11.1633 21.9467 11.1523 21.9887 11.139 22.034M6 18.007C6 18.007 8.666 16.704 11.34 16.704L13.356 10.444C13.431 10.14 13.652 9.934 13.9 9.934C14.15 9.934 14.37 10.14 14.445 10.444L16.461 16.704C19.628 16.704 21.801 18.007 21.801 18.007L17.263 5.602C17.133 5.236 16.913 5 16.618 5H11.183C10.887 5 10.677 5.236 10.538 5.602C10.528 5.626 6 18.007 6 18.007Z" fill="white"/>
</g>
<defs>
<clipPath id="clip0_591_42">
<rect width="28" height="28" rx="6.41667" fill="white"/>
</clipPath>
</defs>
</svg>
