<svg width="48" height="48" viewBox="0 0 48 48" fill="none" xmlns="http://www.w3.org/2000/svg">
<g clip-path="url(#clip0_252_1147)">
<path d="M36.75 0H11.25C5.0368 0 0 5.0368 0 11.25V36.75C0 42.9632 5.0368 48 11.25 48H36.75C42.9632 48 48 42.9632 48 36.75V11.25C48 5.0368 42.9632 0 36.75 0Z" fill="#222222"/>
<mask id="mask0_252_1147" style="mask-type:luminance" maskUnits="userSpaceOnUse" x="5" y="5" width="38" height="38">
<path d="M5.25 5.25H42.75V42.75H5.25V5.25Z" fill="white"/>
</mask>
<g mask="url(#mask0_252_1147)">
<path d="M42.042 22.3301L25.6696 5.95775C25.3321 5.6198 24.9018 5.38963 24.4334 5.29641C23.9649 5.20318 23.4793 5.25109 23.0381 5.43407C22.7451 5.55547 22.479 5.73343 22.2549 5.95775L18.8565 9.35619L23.169 13.6687C24.1721 13.3171 25.3205 13.5573 26.1196 14.3566C26.5001 14.7378 26.7656 15.2182 26.886 15.7431C27.0064 16.268 26.9768 16.8161 26.8005 17.3249L30.9571 21.4816C31.9627 21.1348 33.1228 21.3584 33.9255 22.1636C34.3275 22.5655 34.6013 23.0777 34.7122 23.6353C34.823 24.1929 34.7659 24.7708 34.5481 25.2959C34.2562 26 33.6966 26.5593 32.9923 26.8509C32.2881 27.1425 31.4969 27.1425 30.7927 26.8509C30.444 26.7063 30.1271 26.4946 29.8603 26.2276C29.0165 25.3839 28.808 24.1417 29.2346 23.1022L25.358 19.2256V29.4269C25.6394 29.5662 25.8966 29.7498 26.1196 29.9707C26.6586 30.5096 26.9613 31.2406 26.9613 32.0027C26.9613 32.7649 26.6586 33.4958 26.1196 34.0348C25.5807 34.5737 24.8498 34.8764 24.0876 34.8764C23.3255 34.8765 22.5945 34.5737 22.0556 34.0348C21.6533 33.633 21.3794 33.121 21.2683 32.5634C21.1573 32.0059 21.2143 31.4279 21.432 30.9028C21.5765 30.5541 21.7884 30.2373 22.0556 29.9707C22.3333 29.6941 22.6415 29.4843 22.9966 29.3437V19.0475C22.6443 18.9034 22.3243 18.6903 22.0556 18.4207C21.6521 18.0176 21.3778 17.5035 21.2676 16.944C21.1574 16.3844 21.2163 15.8047 21.4368 15.2788L17.183 11.0274L5.95646 22.2421C5.61849 22.5799 5.3883 23.0103 5.29501 23.4789C5.20173 23.9475 5.24954 24.4332 5.4324 24.8746C5.55392 25.1677 5.732 25.434 5.95646 25.6582L22.3299 42.0292C22.5541 42.2535 22.8202 42.4314 23.1131 42.5529C23.7049 42.7978 24.3697 42.7978 24.9615 42.5529C25.2544 42.4314 25.5205 42.2535 25.7446 42.0292L42.042 25.7578C42.2663 25.5335 42.4444 25.2673 42.5658 24.9742C42.6873 24.6812 42.7499 24.3671 42.75 24.0498C42.75 23.7325 42.6875 23.4184 42.566 23.1253C42.4445 22.8322 42.2664 22.5659 42.042 22.3417" fill="white"/>
</g>
</g>
<defs>
<clipPath id="clip0_252_1147">
<rect width="48" height="48" fill="white"/>
</clipPath>
</defs>
</svg>
