<svg width="48" height="48" viewBox="0 0 48 48" fill="none" xmlns="http://www.w3.org/2000/svg">
<g clip-path="url(#clip0_252_1128)">
<rect x="14" y="3" width="29" height="42" fill="white"/>
<path d="M0 10.2857C0 7.55777 1.08367 4.94156 3.01262 3.01262C4.94156 1.08367 7.55777 0 10.2857 0H37.7143C40.4422 0 43.0584 1.08367 44.9874 3.01262C46.9163 4.94156 48 7.55777 48 10.2857V37.7143C48 40.4422 46.9163 43.0584 44.9874 44.9874C43.0584 46.9163 40.4422 48 37.7143 48H10.2857C7.55777 48 4.94156 46.9163 3.01262 44.9874C1.08367 43.0584 0 40.4422 0 37.7143V10.2857ZM24.8571 15.4286C24.1752 15.4286 23.5211 15.6995 23.0389 16.1817C22.5566 16.664 22.2857 17.318 22.2857 18V35.1429C22.2857 35.3702 22.1954 35.5882 22.0347 35.749C21.8739 35.9097 21.6559 36 21.4286 36H18C17.318 36 16.664 36.2709 16.1817 36.7532C15.6995 37.2354 15.4286 37.8894 15.4286 38.5714C15.4286 39.2534 15.6995 39.9075 16.1817 40.3897C16.664 40.8719 17.318 41.1429 18 41.1429H21.4286C23.0199 41.1429 24.546 40.5107 25.6712 39.3855C26.7964 38.2603 27.4286 36.7342 27.4286 35.1429V18C27.4286 17.318 27.1577 16.664 26.6754 16.1817C26.1932 15.6995 25.5391 15.4286 24.8571 15.4286ZM29.1429 21.4286V24.8571C29.1429 28.1691 31.8309 30.8571 35.1429 30.8571H36.8571C37.0845 30.8571 37.3025 30.9474 37.4632 31.1082C37.624 31.2689 37.7143 31.487 37.7143 31.7143V35.1429C37.7143 35.3702 37.624 35.5882 37.4632 35.749C37.3025 35.9097 37.0845 36 36.8571 36H31.7143C31.0323 36 30.3783 36.2709 29.896 36.7532C29.4138 37.2354 29.1429 37.8894 29.1429 38.5714C29.1429 39.2534 29.4138 39.9075 29.896 40.3897C30.3783 40.8719 31.0323 41.1429 31.7143 41.1429H36.8571C38.4484 41.1429 39.9746 40.5107 41.0998 39.3855C42.225 38.2603 42.8571 36.7342 42.8571 35.1429V31.7143C42.8571 30.123 42.225 28.5969 41.0998 27.4716C39.9746 26.3464 38.4484 25.7143 36.8571 25.7143H35.1429C34.9155 25.7143 34.6975 25.624 34.5368 25.4632C34.376 25.3025 34.2857 25.0845 34.2857 24.8571V21.4286C34.2857 21.2012 34.376 20.9832 34.5368 20.8225C34.6975 20.6617 34.9155 20.5714 35.1429 20.5714H40.2857C40.9677 20.5714 41.6218 20.3005 42.104 19.8183C42.5862 19.336 42.8571 18.682 42.8571 18C42.8571 17.318 42.5862 16.664 42.104 16.1817C41.6218 15.6995 40.9677 15.4286 40.2857 15.4286H35.1429C33.5516 15.4286 32.0254 16.0607 30.9002 17.1859C29.775 18.3111 29.1429 19.8373 29.1429 21.4286Z" fill="#222222"/>
</g>
<defs>
<clipPath id="clip0_252_1128">
<rect width="48" height="48" fill="white"/>
</clipPath>
</defs>
</svg>
